<mxfile>
    <diagram id="LNP9S4-BVpzVc-00VTwb" name="Page-1">
        <mxGraphModel dx="977" dy="1005" grid="1" gridSize="10" guides="1" tooltips="1" connect="1" arrows="1" fold="1" page="1" pageScale="1" pageWidth="850" pageHeight="1100" math="0" shadow="0">
            <root>
                <mxCell id="0"/>
                <mxCell id="1" parent="0"/>
                <mxCell id="0Kgk2NvX1qrmI3Vkb6VV-116" style="edgeStyle=orthogonalEdgeStyle;rounded=0;orthogonalLoop=1;jettySize=auto;html=1;exitX=0.5;exitY=1;exitDx=0;exitDy=0;entryX=0.5;entryY=0;entryDx=0;entryDy=0;" parent="1" source="0Kgk2NvX1qrmI3Vkb6VV-86" target="0Kgk2NvX1qrmI3Vkb6VV-87" edge="1">
                    <mxGeometry relative="1" as="geometry"/>
                </mxCell>
                <mxCell id="0Kgk2NvX1qrmI3Vkb6VV-86" value="Browser" style="rounded=0;whiteSpace=wrap;html=1;shadow=0;sketch=0;fillColor=#f5f5f5;strokeColor=#666666;fontColor=#333333;" parent="1" vertex="1">
                    <mxGeometry y="80" width="120" height="40" as="geometry"/>
                </mxCell>
                <mxCell id="0Kgk2NvX1qrmI3Vkb6VV-88" style="edgeStyle=orthogonalEdgeStyle;rounded=0;orthogonalLoop=1;jettySize=auto;html=1;exitX=0.5;exitY=0;exitDx=0;exitDy=0;" parent="1" source="0Kgk2NvX1qrmI3Vkb6VV-87" target="0Kgk2NvX1qrmI3Vkb6VV-86" edge="1">
                    <mxGeometry relative="1" as="geometry"/>
                </mxCell>
                <mxCell id="0Kgk2NvX1qrmI3Vkb6VV-93" value="HTTP" style="edgeLabel;html=1;align=center;verticalAlign=middle;resizable=0;points=[];labelBackgroundColor=none;fontColor=#000000;" parent="0Kgk2NvX1qrmI3Vkb6VV-88" vertex="1" connectable="0">
                    <mxGeometry x="-0.2" y="1" relative="1" as="geometry">
                        <mxPoint as="offset"/>
                    </mxGeometry>
                </mxCell>
                <mxCell id="0Kgk2NvX1qrmI3Vkb6VV-87" value="Server" style="rounded=0;whiteSpace=wrap;html=1;shadow=0;sketch=0;fillColor=#f5f5f5;strokeColor=#666666;fontColor=#333333;" parent="1" vertex="1">
                    <mxGeometry y="160" width="120" height="40" as="geometry"/>
                </mxCell>
                <mxCell id="0Kgk2NvX1qrmI3Vkb6VV-90" value="HTML" style="html=1;whiteSpace=wrap;shape=isoCube2;backgroundOutline=1;isoAngle=15;shadow=0;sketch=0;fillColor=#f5f5f5;strokeColor=#666666;fontColor=#333333;" parent="1" vertex="1">
                    <mxGeometry x="130" y="70" width="40" height="50" as="geometry"/>
                </mxCell>
                <mxCell id="0Kgk2NvX1qrmI3Vkb6VV-94" value="1994 ~ 1996" style="shape=ext;double=1;rounded=0;whiteSpace=wrap;html=1;shadow=0;sketch=0;fillColor=#f5f5f5;strokeColor=#666666;fontColor=#333333;" parent="1" vertex="1">
                    <mxGeometry width="320" height="30" as="geometry"/>
                </mxCell>
                <mxCell id="0Kgk2NvX1qrmI3Vkb6VV-95" value="PHP" style="html=1;whiteSpace=wrap;shape=isoCube2;backgroundOutline=1;isoAngle=15;shadow=0;sketch=0;fillColor=#f5f5f5;strokeColor=#666666;fontColor=#333333;" parent="1" vertex="1">
                    <mxGeometry x="130" y="155" width="40" height="50" as="geometry"/>
                </mxCell>
                <mxCell id="0Kgk2NvX1qrmI3Vkb6VV-96" value="CSS" style="html=1;whiteSpace=wrap;shape=isoCube2;backgroundOutline=1;isoAngle=15;shadow=0;sketch=0;fillColor=#f5f5f5;strokeColor=#666666;fontColor=#333333;" parent="1" vertex="1">
                    <mxGeometry x="180" y="70" width="40" height="50" as="geometry"/>
                </mxCell>
                <mxCell id="0Kgk2NvX1qrmI3Vkb6VV-97" value="JS" style="html=1;whiteSpace=wrap;shape=isoCube2;backgroundOutline=1;isoAngle=15;shadow=0;sketch=0;fillColor=#f5f5f5;strokeColor=#666666;fontColor=#333333;" parent="1" vertex="1">
                    <mxGeometry x="230" y="70" width="40" height="50" as="geometry"/>
                </mxCell>
                <mxCell id="0Kgk2NvX1qrmI3Vkb6VV-99" value="ASP" style="html=1;whiteSpace=wrap;shape=isoCube2;backgroundOutline=1;isoAngle=15;shadow=0;sketch=0;fillColor=#f5f5f5;strokeColor=#666666;fontColor=#333333;" parent="1" vertex="1">
                    <mxGeometry x="180" y="155" width="40" height="50" as="geometry"/>
                </mxCell>
                <mxCell id="0Kgk2NvX1qrmI3Vkb6VV-100" value="JSP" style="html=1;whiteSpace=wrap;shape=isoCube2;backgroundOutline=1;isoAngle=15;shadow=0;sketch=0;fillColor=#f5f5f5;strokeColor=#666666;fontColor=#333333;" parent="1" vertex="1">
                    <mxGeometry x="230" y="155" width="40" height="50" as="geometry"/>
                </mxCell>
                <UserObject label="http://www.developer-cheatsheets.com/history.html" link="http://www.developer-cheatsheets.com/history.html" id="laAKkEOZeuiqPAOcnTUS-1">
                    <mxCell style="text;html=1;whiteSpace=wrap;align=center;verticalAlign=middle;fontStyle=4;shadow=0;sketch=0;" parent="1" vertex="1">
                        <mxGeometry y="220" width="320" height="40" as="geometry"/>
                    </mxCell>
                </UserObject>
                <mxCell id="0Vi92zAvaDV6fG-lLm3V-1" style="edgeStyle=orthogonalEdgeStyle;rounded=0;orthogonalLoop=1;jettySize=auto;html=1;" edge="1" parent="1" source="0Vi92zAvaDV6fG-lLm3V-2" target="0Vi92zAvaDV6fG-lLm3V-5">
                    <mxGeometry relative="1" as="geometry"/>
                </mxCell>
                <mxCell id="0Vi92zAvaDV6fG-lLm3V-2" value="Browser" style="rounded=0;whiteSpace=wrap;html=1;shadow=0;sketch=0;fillColor=#f5f5f5;strokeColor=#666666;fontColor=#333333;" vertex="1" parent="1">
                    <mxGeometry x="362.5" y="80" width="120" height="40" as="geometry"/>
                </mxCell>
                <mxCell id="0Vi92zAvaDV6fG-lLm3V-3" style="edgeStyle=orthogonalEdgeStyle;rounded=0;orthogonalLoop=1;jettySize=auto;html=1;exitX=0.5;exitY=0;exitDx=0;exitDy=0;" edge="1" parent="1" source="0Vi92zAvaDV6fG-lLm3V-5" target="0Vi92zAvaDV6fG-lLm3V-2">
                    <mxGeometry relative="1" as="geometry"/>
                </mxCell>
                <mxCell id="0Vi92zAvaDV6fG-lLm3V-4" value="HTTP" style="edgeLabel;html=1;align=center;verticalAlign=middle;resizable=0;points=[];labelBackgroundColor=none;fontColor=#000000;" vertex="1" connectable="0" parent="0Vi92zAvaDV6fG-lLm3V-3">
                    <mxGeometry x="-0.2" y="1" relative="1" as="geometry">
                        <mxPoint as="offset"/>
                    </mxGeometry>
                </mxCell>
                <mxCell id="0Vi92zAvaDV6fG-lLm3V-5" value="Server" style="rounded=0;whiteSpace=wrap;html=1;shadow=0;sketch=0;fillColor=#f5f5f5;strokeColor=#666666;fontColor=#333333;" vertex="1" parent="1">
                    <mxGeometry x="362.5" y="160" width="120" height="40" as="geometry"/>
                </mxCell>
                <mxCell id="0Vi92zAvaDV6fG-lLm3V-6" value="HTML" style="html=1;whiteSpace=wrap;shape=isoCube2;backgroundOutline=1;isoAngle=15;shadow=0;sketch=0;fillColor=#f5f5f5;strokeColor=#666666;fontColor=#333333;" vertex="1" parent="1">
                    <mxGeometry x="492.5" y="70" width="40" height="50" as="geometry"/>
                </mxCell>
                <mxCell id="0Vi92zAvaDV6fG-lLm3V-7" value="2002" style="shape=ext;double=1;rounded=0;whiteSpace=wrap;html=1;shadow=0;sketch=0;fillColor=#f5f5f5;strokeColor=#666666;fontColor=#333333;" vertex="1" parent="1">
                    <mxGeometry x="362.5" width="320" height="30" as="geometry"/>
                </mxCell>
                <mxCell id="0Vi92zAvaDV6fG-lLm3V-8" value="PHP" style="html=1;whiteSpace=wrap;shape=isoCube2;backgroundOutline=1;isoAngle=15;shadow=0;sketch=0;fillColor=#f5f5f5;strokeColor=#666666;fontColor=#333333;" vertex="1" parent="1">
                    <mxGeometry x="492.5" y="155" width="40" height="50" as="geometry"/>
                </mxCell>
                <mxCell id="0Vi92zAvaDV6fG-lLm3V-9" value="CSS" style="html=1;whiteSpace=wrap;shape=isoCube2;backgroundOutline=1;isoAngle=15;shadow=0;sketch=0;fillColor=#f5f5f5;strokeColor=#666666;fontColor=#333333;" vertex="1" parent="1">
                    <mxGeometry x="542.5" y="70" width="40" height="50" as="geometry"/>
                </mxCell>
                <mxCell id="0Vi92zAvaDV6fG-lLm3V-10" value="JS" style="html=1;whiteSpace=wrap;shape=isoCube2;backgroundOutline=1;isoAngle=15;shadow=0;sketch=0;fillColor=#f5f5f5;strokeColor=#666666;fontColor=#333333;" vertex="1" parent="1">
                    <mxGeometry x="592.5" y="70" width="40" height="50" as="geometry"/>
                </mxCell>
                <mxCell id="0Vi92zAvaDV6fG-lLm3V-11" value="ASP" style="html=1;whiteSpace=wrap;shape=isoCube2;backgroundOutline=1;isoAngle=15;shadow=0;sketch=0;fillColor=#f5f5f5;strokeColor=#666666;fontColor=#333333;" vertex="1" parent="1">
                    <mxGeometry x="542.5" y="155" width="40" height="50" as="geometry"/>
                </mxCell>
                <mxCell id="0Vi92zAvaDV6fG-lLm3V-12" value="JSP" style="html=1;whiteSpace=wrap;shape=isoCube2;backgroundOutline=1;isoAngle=15;shadow=0;sketch=0;fillColor=#f5f5f5;strokeColor=#666666;fontColor=#333333;" vertex="1" parent="1">
                    <mxGeometry x="592.5" y="155" width="40" height="50" as="geometry"/>
                </mxCell>
                <mxCell id="0Vi92zAvaDV6fG-lLm3V-13" value="REST" style="ellipse;shape=cloud;whiteSpace=wrap;html=1;shadow=0;sketch=0;fillColor=#f5f5f5;align=center;strokeColor=#666666;fontColor=#333333;" vertex="1" parent="1">
                    <mxGeometry x="442.5" y="120" width="60" height="40" as="geometry"/>
                </mxCell>
                <UserObject label="http://www.developer-cheatsheets.com/history.html" link="http://www.developer-cheatsheets.com/history.html" id="0Vi92zAvaDV6fG-lLm3V-14">
                    <mxCell style="text;html=1;whiteSpace=wrap;align=center;verticalAlign=middle;fontStyle=4;shadow=0;sketch=0;" vertex="1" parent="1">
                        <mxGeometry x="360" y="220" width="320" height="40" as="geometry"/>
                    </mxCell>
                </UserObject>
                <mxCell id="UVsszdtu9oZuO5VwXDON-1" style="edgeStyle=orthogonalEdgeStyle;rounded=0;orthogonalLoop=1;jettySize=auto;html=1;" edge="1" parent="1" source="UVsszdtu9oZuO5VwXDON-2" target="UVsszdtu9oZuO5VwXDON-5">
                    <mxGeometry relative="1" as="geometry"/>
                </mxCell>
                <mxCell id="UVsszdtu9oZuO5VwXDON-2" value="Browser" style="rounded=0;whiteSpace=wrap;html=1;shadow=0;sketch=0;fillColor=#f5f5f5;strokeColor=#666666;fontColor=#333333;" vertex="1" parent="1">
                    <mxGeometry x="720" y="80" width="120" height="40" as="geometry"/>
                </mxCell>
                <mxCell id="UVsszdtu9oZuO5VwXDON-3" style="edgeStyle=orthogonalEdgeStyle;rounded=0;orthogonalLoop=1;jettySize=auto;html=1;exitX=0.5;exitY=0;exitDx=0;exitDy=0;" edge="1" parent="1" source="UVsszdtu9oZuO5VwXDON-5" target="UVsszdtu9oZuO5VwXDON-2">
                    <mxGeometry relative="1" as="geometry"/>
                </mxCell>
                <mxCell id="UVsszdtu9oZuO5VwXDON-4" value="HTTP" style="edgeLabel;html=1;align=center;verticalAlign=middle;resizable=0;points=[];labelBackgroundColor=none;fontColor=#000000;" vertex="1" connectable="0" parent="UVsszdtu9oZuO5VwXDON-3">
                    <mxGeometry x="-0.2" y="1" relative="1" as="geometry">
                        <mxPoint as="offset"/>
                    </mxGeometry>
                </mxCell>
                <mxCell id="UVsszdtu9oZuO5VwXDON-5" value="Server" style="rounded=0;whiteSpace=wrap;html=1;shadow=0;sketch=0;fillColor=#f5f5f5;strokeColor=#666666;fontColor=#333333;" vertex="1" parent="1">
                    <mxGeometry x="720" y="160" width="120" height="40" as="geometry"/>
                </mxCell>
                <mxCell id="UVsszdtu9oZuO5VwXDON-6" value="HTML" style="html=1;whiteSpace=wrap;shape=isoCube2;backgroundOutline=1;isoAngle=15;shadow=0;sketch=0;fillColor=#f5f5f5;strokeColor=#666666;fontColor=#333333;" vertex="1" parent="1">
                    <mxGeometry x="850" y="70" width="40" height="50" as="geometry"/>
                </mxCell>
                <mxCell id="UVsszdtu9oZuO5VwXDON-7" value="2005" style="shape=ext;double=1;rounded=0;whiteSpace=wrap;html=1;shadow=0;sketch=0;fillColor=#f5f5f5;strokeColor=#666666;fontColor=#333333;" vertex="1" parent="1">
                    <mxGeometry x="720" width="320" height="30" as="geometry"/>
                </mxCell>
                <mxCell id="UVsszdtu9oZuO5VwXDON-8" value="PHP" style="html=1;whiteSpace=wrap;shape=isoCube2;backgroundOutline=1;isoAngle=15;shadow=0;sketch=0;fillColor=#f5f5f5;strokeColor=#666666;fontColor=#333333;" vertex="1" parent="1">
                    <mxGeometry x="850" y="155" width="40" height="50" as="geometry"/>
                </mxCell>
                <mxCell id="UVsszdtu9oZuO5VwXDON-9" value="CSS" style="html=1;whiteSpace=wrap;shape=isoCube2;backgroundOutline=1;isoAngle=15;shadow=0;sketch=0;fillColor=#f5f5f5;strokeColor=#666666;fontColor=#333333;" vertex="1" parent="1">
                    <mxGeometry x="900" y="70" width="40" height="50" as="geometry"/>
                </mxCell>
                <mxCell id="UVsszdtu9oZuO5VwXDON-10" value="JS" style="html=1;whiteSpace=wrap;shape=isoCube2;backgroundOutline=1;isoAngle=15;shadow=0;sketch=0;fillColor=#f5f5f5;strokeColor=#666666;fontColor=#333333;" vertex="1" parent="1">
                    <mxGeometry x="950" y="70" width="40" height="50" as="geometry"/>
                </mxCell>
                <mxCell id="UVsszdtu9oZuO5VwXDON-11" value="ASP" style="html=1;whiteSpace=wrap;shape=isoCube2;backgroundOutline=1;isoAngle=15;shadow=0;sketch=0;fillColor=#f5f5f5;strokeColor=#666666;fontColor=#333333;" vertex="1" parent="1">
                    <mxGeometry x="900" y="155" width="40" height="50" as="geometry"/>
                </mxCell>
                <mxCell id="UVsszdtu9oZuO5VwXDON-12" value="JSP" style="html=1;whiteSpace=wrap;shape=isoCube2;backgroundOutline=1;isoAngle=15;shadow=0;sketch=0;fillColor=#f5f5f5;strokeColor=#666666;fontColor=#333333;" vertex="1" parent="1">
                    <mxGeometry x="950" y="155" width="40" height="50" as="geometry"/>
                </mxCell>
                <mxCell id="UVsszdtu9oZuO5VwXDON-13" value="REST" style="ellipse;shape=cloud;whiteSpace=wrap;html=1;shadow=0;sketch=0;fillColor=#f5f5f5;align=center;strokeColor=#666666;fontColor=#333333;" vertex="1" parent="1">
                    <mxGeometry x="797.5" y="120" width="60" height="40" as="geometry"/>
                </mxCell>
                <mxCell id="UVsszdtu9oZuO5VwXDON-14" value="Ajax" style="ellipse;shape=cloud;whiteSpace=wrap;html=1;shadow=0;sketch=0;fillColor=#f5f5f5;align=center;strokeColor=#666666;fontColor=#333333;" vertex="1" parent="1">
                    <mxGeometry x="797.5" y="50" width="60" height="40" as="geometry"/>
                </mxCell>
                <UserObject label="http://www.developer-cheatsheets.com/history.html" link="http://www.developer-cheatsheets.com/history.html" id="UVsszdtu9oZuO5VwXDON-15">
                    <mxCell style="text;html=1;whiteSpace=wrap;align=center;verticalAlign=middle;fontStyle=4;shadow=0;sketch=0;" vertex="1" parent="1">
                        <mxGeometry x="720" y="220" width="320" height="40" as="geometry"/>
                    </mxCell>
                </UserObject>
            </root>
        </mxGraphModel>
    </diagram>
</mxfile>